name analog
datacolumns 19
datarows 62
range 0.624 0.6545
endheader
time	ground_force_vx	ground_force_vy	ground_force_vz	ground_force_px	ground_force_py	ground_force_pz	l_ground_force_vx	l_ground_force_vy	l_ground_force_vz	l_ground_force_px	l_ground_force_py	l_ground_force_pz	ground_torque_x	ground_torque_y	ground_torque_z	l_ground_torque_x	l_ground_torque_y	l_ground_torque_z
0.624	-0.0	-0.0	-0.0	27.298416137695312	75.55571746826172	-625.9581909179688	2.5440475940704346	-6.336726188659668	-144.17587280273438	-0.0	-0.0	-0.0	-0.0	-0.0	-0.0	46664.9375	-17507.060546875	3926.413330078125
0.6245	-0.0	-0.0	-0.0	28.07222557067871	79.06256866455078	-641.267333984375	1.685504913330078	-4.800692081451416	-129.26531982421875	-0.0	-0.0	-0.0	-0.0	-0.0	-0.0	41481.859375	-15578.6083984375	3439.11328125
0.625	-0.0	-0.0	-0.0	29.35546493530273	82.95474243164062	-656.6701049804688	1.0619139671325684	-3.709510803222656	-113.8131332397461	-0.0	-0.0	-0.0	-0.0	-0.0	-0.0	37030.421875	-13795.0	3036.01611328125
0.6255000000000001	-0.0	-0.0	-0.0	30.45157814025879	86.36735534667969	-673.0453491210938	0.6834073066711426	-2.530249834060669	-101.94255828857422	-0.0	-0.0	-0.0	-0.0	-0.0	-0.0	32533.912109375	-12248.359375	2559.73828125
0.626	-0.0	-0.0	-0.0	31.761749267578125	90.05375671386719	-686.3555908203125	0.2373241186141967	-1.79511559009552	-89.26042938232422	-0.0	-0.0	-0.0	-0.0	-0.0	-0.0	28723.330078125	-10647.50390625	2363.202880859375
0.6265000000000001	-0.0	-0.0	-0.0	32.62052154541016	93.35240936279295	-700.0120239257812	0.0288806818425655	-0.7620218396186829	-78.55911254882812	-0.0	-0.0	-0.0	-0.0	-0.0	-0.0	24742.357421875	-9226.4765625	1967.31103515625
0.627	-0.0	-0.0	-0.0	33.24509048461914	95.8172607421875	-712.1353759765625	-0.3567667007446289	-0.1459260582923889	-65.86822509765625	-0.0	-0.0	-0.0	-0.0	-0.0	-0.0	21306.7109375	-7779.10498046875	1711.1932373046875
0.6275000000000001	-0.0	-0.0	-0.0	34.58510208129883	98.13517761230467	-723.31591796875	-0.0887107849121093	0.1801377534866333	-56.44157409667969	-0.0	-0.0	-0.0	-0.0	-0.0	-0.0	18294.0546875	-6776.5615234375	1224.7271728515625
0.628	-0.0	-0.0	-0.0	35.6842041015625	99.94466400146484	-731.9083251953125	-0.709686279296875	1.029383420944214	-47.82148361206055	-0.0	-0.0	-0.0	-0.0	-0.0	-0.0	15137.09375	-5725.9267578125	987.8619995117188
0.6285000000000001	-0.0	-0.0	-0.0	36.36880493164063	101.60865783691406	-740.6144409179688	-0.5891071557998657	1.1757920980453491	-39.9178581237793	-0.0	-0.0	-0.0	-0.0	-0.0	-0.0	12900.6826171875	-4928.896484375	712.2777099609375
0.629	-0.0	-0.0	-0.0	37.08192825317383	103.09425354003906	-747.801513671875	-1.4777387380599976	1.7664337158203125	-32.46195602416992	-0.0	-0.0	-0.0	-0.0	-0.0	-0.0	10773.076171875	-3930.44775390625	355.75457763671875
0.6295000000000001	-0.0	-0.0	-0.0	37.31993865966797	103.836669921875	-750.50732421875	-1.8347086906433103	1.41314697265625	-26.769620895385746	-0.0	-0.0	-0.0	-0.0	-0.0	-0.0	8368.583984375	-3256.45166015625	48.26803207397461
0.63	-0.0	-0.0	-0.0	37.73604583740234	104.7280502319336	-755.8048095703125	-0.6737370491027832	0.6416175365447998	-7.1481218338012695	-0.0	-0.0	-0.0	-0.0	-0.0	-0.0	2236.734375	-784.5852661132812	-88.4736328125
0.6305000000000001	-0.0	-0.0	-0.0	38.21192932128906	104.6388168334961	-757.1019287109375	-0.0	-0.0	-0.0	-0.0	-0.0	-0.0	-0.0	-0.0	-0.0	-0.0	-0.0	-0.0
0.631	-0.0	-0.0	-0.0	38.62772750854492	104.96576690673828	-756.2781982421875	-0.0	-0.0	-0.0	-0.0	-0.0	-0.0	-0.0	-0.0	-0.0	-0.0	-0.0	-0.0
0.6315000000000001	-0.0	-0.0	-0.0	38.59940719604492	104.87598419189452	-756.1629638671875	-0.0	-0.0	-0.0	-0.0	-0.0	-0.0	-0.0	-0.0	-0.0	-0.0	-0.0	-0.0
0.632	-0.0	-0.0	-0.0	37.794464111328125	104.72743225097656	-756.0457763671875	-0.0	-0.0	-0.0	-0.0	-0.0	-0.0	-0.0	-0.0	-0.0	-0.0	-0.0	-0.0
0.6325000000000001	-0.0	-0.0	-0.0	36.60441970825195	104.16535186767578	-753.2254028320312	-0.0	-0.0	-0.0	-0.0	-0.0	-0.0	-0.0	-0.0	-0.0	-0.0	-0.0	-0.0
0.633	-0.0	-0.0	-0.0	35.711952209472656	104.28257751464844	-751.9200439453125	-0.0	-0.0	-0.0	-0.0	-0.0	-0.0	-0.0	-0.0	-0.0	-0.0	-0.0	-0.0
0.6335000000000001	-0.0	-0.0	-0.0	34.612335205078125	103.77660369873048	-747.6978759765625	-0.0	-0.0	-0.0	-0.0	-0.0	-0.0	-0.0	-0.0	-0.0	-0.0	-0.0	-0.0
0.634	-0.0	-0.0	-0.0	33.484188079833984	103.45323181152344	-746.8558349609375	-0.0	-0.0	-0.0	-0.0	-0.0	-0.0	-0.0	-0.0	-0.0	-0.0	-0.0	-0.0
0.6345000000000001	-0.0	-0.0	-0.0	31.967679977416992	103.26836395263672	-741.9248657226562	-0.0	-0.0	-0.0	-0.0	-0.0	-0.0	-0.0	-0.0	-0.0	-0.0	-0.0	-0.0
0.635	-0.0	-0.0	-0.0	31.19520378112793	102.91716766357422	-739.6790771484375	-0.0	-0.0	-0.0	-0.0	-0.0	-0.0	-0.0	-0.0	-0.0	-0.0	-0.0	-0.0
0.6355000000000001	-0.0	-0.0	-0.0	30.366125106811523	102.0805892944336	-735.087890625	-0.0	-0.0	-0.0	-0.0	-0.0	-0.0	-0.0	-0.0	-0.0	-0.0	-0.0	-0.0
0.636	-0.0	-0.0	-0.0	29.589658737182617	101.57369232177734	-733.2105102539062	-0.0	-0.0	-0.0	-0.0	-0.0	-0.0	-0.0	-0.0	-0.0	-0.0	-0.0	-0.0
0.6365000000000001	-0.0	-0.0	-0.0	28.69279289245605	100.72467041015624	-728.8424682617188	-0.0	-0.0	-0.0	-0.0	-0.0	-0.0	-0.0	-0.0	-0.0	-0.0	-0.0	-0.0
0.637	-0.0	-0.0	-0.0	27.36498260498047	100.36083984375	-726.4910888671875	-0.0	-0.0	-0.0	-0.0	-0.0	-0.0	-0.0	-0.0	-0.0	-0.0	-0.0	-0.0
0.6375000000000001	-0.0	-0.0	-0.0	26.562482833862305	99.35816955566406	-724.1513671875	-0.0	-0.0	-0.0	-0.0	-0.0	-0.0	-0.0	-0.0	-0.0	-0.0	-0.0	-0.0
0.638	-0.0	-0.0	-0.0	26.3388614654541	98.82388305664062	-720.7304077148438	-0.0	-0.0	-0.0	-0.0	-0.0	-0.0	-0.0	-0.0	-0.0	-0.0	-0.0	-0.0
0.6385000000000001	-0.0	-0.0	-0.0	26.67394256591797	98.36597442626952	-718.2587280273438	-0.0	-0.0	-0.0	-0.0	-0.0	-0.0	-0.0	-0.0	-0.0	-0.0	-0.0	-0.0
0.639	-0.0	-0.0	-0.0	26.46130752563477	97.81023406982422	-712.3373413085938	-0.0	-0.0	-0.0	-0.0	-0.0	-0.0	-0.0	-0.0	-0.0	-0.0	-0.0	-0.0
0.6395000000000001	-0.0	-0.0	-0.0	26.841705322265625	97.05946350097656	-707.0943603515625	-0.0	-0.0	-0.0	-0.0	-0.0	-0.0	-0.0	-0.0	-0.0	-0.0	-0.0	-0.0
0.64	-0.0	-0.0	-0.0	26.8720760345459	96.0009536743164	-700.5231323242188	-11.482754707336426	-1.3799258470535278	-23.87363815307617	-0.0	-0.0	-0.0	-0.0	-0.0	-0.0	7400.59423828125	-2297.733154296875	-3786.0556640625
0.6405	-0.0	-0.0	-0.0	26.786380767822266	95.48577117919922	-695.3038940429688	-8.21654224395752	-1.7359998226165771	-30.25588035583496	-0.0	-0.0	-0.0	-0.0	-0.0	-0.0	9599.005859375	-3096.644775390625	-2627.9423828125
0.641	-0.0	-0.0	-0.0	27.24031639099121	93.92472076416016	-691.2963256835938	-4.319398403167725	-2.354179620742798	-38.730560302734375	-0.0	-0.0	-0.0	-0.0	-0.0	-0.0	12084.0234375	-3659.063232421875	-1398.953369140625
0.6415	-0.0	-0.0	-0.0	26.88352394104004	93.35919189453124	-683.1564331054688	-2.2791476249694824	-3.709510803222656	-48.76043701171875	-0.0	-0.0	-0.0	-0.0	-0.0	-0.0	15220.6962890625	-4393.86083984375	-814.8765869140625
0.642	-0.0	-0.0	-0.0	27.24041557312012	92.49058532714844	-676.92236328125	-2.00959849357605	-5.614927768707275	-62.02796173095703	-0.0	-0.0	-0.0	-0.0	-0.0	-0.0	19161.5859375	-5467.37646484375	-654.2811889648438
0.6425	-0.0	-0.0	-0.0	26.736507415771484	91.92933654785156	-667.8999633789062	-2.541790723800659	-7.85689115524292	-76.67726135253906	-0.0	-0.0	-0.0	-0.0	-0.0	-0.0	23391.34765625	-6618.61474609375	-840.9357299804688
0.643	-0.0	-0.0	-0.0	26.40631103515625	91.35865783691406	-658.9287109375	-2.7848079204559326	-10.011086463928224	-92.26680755615234	-0.0	-0.0	-0.0	-0.0	-0.0	-0.0	28406.603515625	-7670.138671875	-704.8323364257812
0.6435	-0.0	-0.0	-0.0	25.21517372131348	89.87481689453125	-648.9554443359375	-2.168135404586792	-12.29533863067627	-108.69184112548828	-0.0	-0.0	-0.0	-0.0	-0.0	-0.0	33429.60546875	-8992.6318359375	-539.9800415039062
0.644	-0.0	-0.0	-0.0	24.92119789123535	88.21283721923828	-639.9415283203125	-0.9223673939704896	-14.166574478149414	-129.39646911621094	-0.0	-0.0	-0.0	-0.0	-0.0	-0.0	39462.8203125	-10620.208984375	-35.34516525268555
0.6445	-0.0	-0.0	-0.0	23.766891479492188	86.87601470947266	-627.746826171875	0.3503939211368561	-16.246761322021484	-148.10997009277344	-0.0	-0.0	-0.0	-0.0	-0.0	-0.0	45641.17578125	-12135.890625	449.9792785644531
0.645	-0.0	-0.0	-0.0	23.16872215270996	84.90969848632812	-614.2020263671875	1.2061586380004885	-18.42359733581543	-166.63108825683594	-0.0	-0.0	-0.0	-0.0	-0.0	-0.0	51494.44921875	-13872.7255859375	755.4746704101562
0.6455	-0.0	-0.0	-0.0	21.715538024902344	82.95452117919922	-599.2892456054688	2.443099975585937	-20.01319122314453	-186.88092041015625	-0.0	-0.0	-0.0	-0.0	-0.0	-0.0	57191.734375	-15270.80859375	1179.9964599609375
0.646	-0.0	-0.0	-0.0	20.926841735839844	81.22356414794922	-586.4511108398438	2.9949214458465576	-21.52436637878418	-206.3928985595703	-0.0	-0.0	-0.0	-0.0	-0.0	-0.0	63210.87109375	-16922.294921875	1528.748046875
0.6465	-0.0	-0.0	-0.0	19.65809440612793	78.561767578125	-570.0810546875	3.7362778186798096	-23.400056838989254	-223.66244506835935	-0.0	-0.0	-0.0	-0.0	-0.0	-0.0	68794.3984375	-18622.033203125	1813.203125
0.647	-0.0	-0.0	-0.0	18.523542404174805	75.82445526123047	-553.9370727539062	4.550248146057129	-25.067354202270508	-241.34500122070312	-0.0	-0.0	-0.0	-0.0	-0.0	-0.0	74258.0078125	-19831.728515625	1848.31640625
0.6475	-0.0	-0.0	-0.0	16.854307174682617	73.23979187011719	-536.279052734375	3.997537612915039	-27.07794570922852	-259.1286315917969	-0.0	-0.0	-0.0	-0.0	-0.0	-0.0	79398.8984375	-21161.72265625	1835.1357421875
0.648	-0.0	-0.0	-0.0	15.472067832946776	71.18994140625	-519.78076171875	3.485452890396118	-28.792869567871094	-276.0097045898437	-0.0	-0.0	-0.0	-0.0	-0.0	-0.0	84230.9921875	-22197.19140625	1734.814208984375
0.6485	-0.0	-0.0	-0.0	14.43375015258789	68.12078857421875	-503.5078430175781	2.907722234725952	-29.70748519897461	-290.820068359375	-0.0	-0.0	-0.0	-0.0	-0.0	-0.0	89002.46875	-23225.564453125	1467.178466796875
0.649	-0.0	-0.0	-0.0	13.103005409240724	64.99720001220703	-487.8252258300781	2.1412973403930664	-31.297348022460938	-306.0574645996094	-0.0	-0.0	-0.0	-0.0	-0.0	-0.0	93755.375	-24481.583984375	1485.2991943359375
0.6495	-0.0	-0.0	-0.0	11.96140480041504	62.12389373779297	-470.209716796875	1.7742156982421875	-32.82415008544922	-321.2947692871094	-0.0	-0.0	-0.0	-0.0	-0.0	-0.0	98192.984375	-25627.9921875	1459.1439208984375
0.65	-0.0	-0.0	-0.0	11.265341758728027	58.98690414428711	-452.5801696777344	1.8564786911010744	-34.70400619506836	-334.9845886230469	-0.0	-0.0	-0.0	-0.0	-0.0	-0.0	102390.078125	-26376.16796875	1249.0018310546875
0.6505	-0.0	-0.0	-0.0	10.75460433959961	56.499210357666016	-436.4627990722656	1.6219210624694824	-36.55343627929688	-350.8449401855469	-0.0	-0.0	-0.0	-0.0	-0.0	-0.0	106879.3359375	-27494.705078125	1297.086669921875
0.651	-0.0	-0.0	-0.0	9.399421691894531	53.35548782348633	-421.5995788574219	0.957599639892578	-38.6079330444336	-364.4606628417969	-0.0	-0.0	-0.0	-0.0	-0.0	-0.0	111198.8203125	-28391.693359375	1299.9072265625
0.6515	-0.0	-0.0	-0.0	9.107389450073242	50.350059509277344	-405.0005493164063	1.221003174781799	-40.369964599609375	-377.880126953125	-0.0	-0.0	-0.0	-0.0	-0.0	-0.0	115591.375	-29043.5390625	1228.172607421875
0.652	-0.0	-0.0	-0.0	8.329017639160156	48.37350082397461	-388.401611328125	0.8551461100578308	-42.11516189575195	-393.8841247558594	-0.0	-0.0	-0.0	-0.0	-0.0	-0.0	119712.671875	-29923.00390625	1362.745361328125
0.6525	-0.0	-0.0	-0.0	7.874732971191406	45.49726486206055	-372.09283447265625	1.0398632287979126	-43.85667037963867	-407.528076171875	-0.0	-0.0	-0.0	-0.0	-0.0	-0.0	124481.796875	-30951.482421875	1265.1536865234375
0.653	-0.0	-0.0	-0.0	6.901783466339111	42.53074264526367	-357.83868408203125	1.00791335105896	-45.45371627807617	-422.064697265625	-0.0	-0.0	-0.0	-0.0	-0.0	-0.0	128366.9140625	-31842.8984375	1493.8380126953125
0.6535	-0.0	-0.0	-0.0	6.455780029296875	40.48049545288086	-341.8518981933594	1.2098073959350586	-47.46843338012695	-436.98095703125	-0.0	-0.0	-0.0	-0.0	-0.0	-0.0	132821.9375	-32684.357421875	1458.6754150390625
0.654	-0.0	-0.0	-0.0	5.7333149909973145	37.99337768554688	-325.313720703125	0.9515161514282228	-49.6851806640625	-450.8503723144531	-0.0	-0.0	-0.0	-0.0	-0.0	-0.0	137029.03125	-33667.98828125	1697.6024169921875
0.6545	-0.0	-0.0	-0.0	5.498294830322266	35.64311218261719	-310.8700866699219	1.1936357021331787	-51.84483337402344	-465.2601013183594	-0.0	-0.0	-0.0	-0.0	-0.0	-0.0	141659.53125	-34449.4609375	1681.24560546875
